<?xml version="1.0" encoding="utf-8"?>
<!-- Generator: Adobe Illustrator 19.1.0, SVG Export Plug-In . SVG Version: 6.00 Build 0)  -->
<svg version="1.1" xmlns="http://www.w3.org/2000/svg" xmlns:xlink="http://www.w3.org/1999/xlink" x="0px" y="0px"
	 viewBox="0 0 1046 318" style="enable-background:new 0 0 1046 318;" xml:space="preserve">
<style type="text/css">
	.st0{fill:#FFFFFF;}
	.st1{fill:#004B52;}
	.st2{fill:#00757F;}
	.st3{fill:none;}
	.st4{fill:#EFC94C;}
	.st5{fill:#45B29D;}
	.st6{fill:none;stroke:#D54F58;stroke-width:3;}
	.st7{display:none;}
	.st8{display:inline;}
	.st9{fill:#FF931E;}
	.st10{fill:none;stroke:#D54F58;stroke-miterlimit:10;}
	.st11{fill:none;stroke:#000000;stroke-miterlimit:10;}
</style>
<g id="Calque_1">
	<g>
		<g>
			<path class="st5" d="M782.9,150.2c-0.1,1.5-0.2,3.1-0.4,4.6c-0.1,1.1-0.4,2.3-0.7,3.4c-0.2,0.7-0.1,1.3-0.3,1.9l-1,4.2
				c-0.3,1.2-0.8,2.3-1.2,3.4c-0.6,1.3-1.1,2.7-1.5,4c-0.3,0.8-0.4,1.4-0.8,2.2c-0.2,0.6-0.7,1.1-1,1.7c-0.7,0.9-1.3,1.7-1.7,2.8
				c-0.2,0.9-1,1.7-1.7,2.3c-0.9,1.2-1.9,2.2-2.7,3.4c-0.6,1.1-1.7,1.8-2.3,2.7c-0.7,1.1-1.7,1.8-2.5,2.4c-1.7,1.1-3.3,2.1-5,3
				c-2.1,1-3.9,0.1-5.5-1.1c-0.8-0.6-1.7-1.1-2.5-1.4c-1.1-0.6-2-1.4-2.9-2.2c-0.4-0.4-1-0.9-1.3-1.4c-0.9-1.3-0.4-2.8,0.1-4.1
				c0.2-0.4,0.4-0.9,0.8-1.3c0.1-0.2,0.3-0.3,0.4-0.6c0.2,0.3,0.4,0.7,0.4,0.9c0,0.3-0.3,0.7-0.4,1v0.4c0.1,0,0.3-0.1,0.4-0.2
				l0.2-0.2c0.1,0.2,0.4,0.4,0.4,0.6c-0.1,0.9,0.3,1.5,0.8,2.2c0.2,0.2,0.7,0.4,1,0.6c0.1,0.2,0.2,0.3,0.4,0.4
				c0.3,0.2,0.7,0.3,1.1,0.6l0.2-0.6c0.2,0.6,0.7,0.6,1.2,0.2l2.4-1.3l0.7-0.7l1.8-1.3c0.2,0,0.3-0.1,0.6-0.2v-0.2l1.2-1.1l0.3-0.6
				c0.8-0.8,1.7-1.7,2.3-2.5c0.4-0.4,0.7-1.1,1-1.5c2.5-3.6,4.8-7.5,6.3-11.7c0.9-2.5,1.7-5.2,2.4-7.7c0.3-1.1,0.3-2.3,0.4-3.4
				c0.1-0.4,0.1-1,0.2-1.4c0.6-1.2,0.3-2.4,0.4-3.8c0-0.7,0.1-1.4,0-2.1c-0.1-1.2-0.3-2.5-0.6-3.6c-0.1-0.8-0.6-0.8-1.2-0.3
				c-1.8,1.3-3.5,2.5-5.2,4c-3.3,2.9-5.9,6.5-8.1,10.3c-1.9,3.1-3.7,6.2-5.4,9.4l-2.7,5.4c-0.4,1.1-1.1,2.1-1.7,3.2l-1,2.1h0.1
				c-0.1,0-0.1,0-0.1,0.1l0.1,0.1h-0.1c-0.3,0.9-0.7,1.9-1.1,2.9l-2.3,5.5c-0.1,0.1-0.1,0.2-0.1,0.3c0.3,1.8-0.8,3.1-1.1,4.8
				c-0.1,0.6-0.3,1.1-0.6,1.8c-0.1,0.2-0.6,0.4-0.9,0.6c-0.9,0.1-1.5-0.3-2.2-1c-0.8-0.8-1.9-1.1-2.8-1.7c-0.4-0.2-0.8-0.4-1.1-0.8
				c-0.7-0.8-1.3-1.5-1.9-2.4c-0.1-0.1,0-0.4,0.1-0.6c0.2-0.4,0.7-0.8,0.8-1.2c0.6-1.7,1-3.4,1.4-5.1c0.2-0.6,0.6-1.1,0.8-1.7
				c0.1-0.7,0.1-1.3,0.2-2c0.1-0.3,0.3-0.7,0.4-1.1c0.2-1,0.4-2,0.8-3c1.1-2.4,2.2-4.9,3.2-7.3c0.3-0.9,1.1-1.8,1.3-2.7
				c0.2-1.4,1-2.8,1.4-4.1c0.6-1.7,1.3-3.2,2-4.8c0.4-1.1,0.8-2.2,1.1-3.2l0.3-0.9c0.6-1.3,1-2.7,1.5-3.9c0.1-0.4,0.4-0.8,0.6-1.1
				c0.3-0.9,0.7-1.8,0.9-2.7c0.6-1.3,1-2.7,1.5-4c0-0.2,0.1-0.4,0.2-0.6c1-0.7,0.9-1.9,1.2-2.9c0.2-1.1,0.8-2.3,1.3-3.4
				c0.3-0.7,6.2-13.4,6.2-15c-0.1-0.9,0.6-1.7,0.7-2.5c0.3-2.2,1.4-4.2,2.2-6.3c0.1-0.3,0.3-0.7,0.4-1.1c0.4-0.8,1.1-1.2,2-1.1
				l1.9,0.3c1.1,0.4,2.2,0.8,3.2,1.2c0.8,0.4,1.3,1.1,1.7,1.9c0.8,1.5,0.2,2.8-0.3,4.1l-6.3,13.9v0.1c-1.2,1.4-1.8,3.1-2.5,4.6
				c-0.7,1.2-1.1,2.4-1.7,3.7l-1.1,2.4c-0.6,1.1-1.2,2.1-1.3,3.2c-0.1,1-0.6,1.9-1,2.8v0.3l0.3-0.2c1.1-1.1,2.1-2.2,3.2-3.2
				c2.2-1.8,4.6-3.2,7.7-3.3c0.7,0,1.4-0.1,2.2-0.1c0.1,0,0.3,0.2,0.3,0.3c0,0.1-0.1,0.3-0.3,0.4c-0.2,0-0.6,0-0.9,0.1
				c-0.2,0-0.4,0.3-0.7,0.4c0.2,0.1,0.6,0.3,0.8,0.3c0.4,0,0.9-0.1,1.2-0.1c0.7-0.1,1.2-0.2,1.9-0.2c0.9-0.1,1.8,0,2.2,0.9l0.3,0.2
				c1.5,1,2.3,2.5,3.1,4.2C783,145.3,783.1,147.7,782.9,150.2z M744.8,173.9l-0.3-0.3l-0.4,0.7c0,0.1,0.2,0.2,0.2,0.4
				C744.5,174.4,744.6,174.2,744.8,173.9z M751,160.4c0-0.2-0.2-0.3-0.2-0.6c-0.2,0.1-0.4,0.2-0.6,0.3c-0.1,0.6-0.3,1-0.3,1.4
				c0,0.6,0,0.7-0.7,0.6c-0.3,0.7-0.9,1.3-1.1,2c-0.2,0.8-0.8,1.2-1.1,1.9c-0.1,0.4-0.4,0.9-0.3,1.2c0.1,0.4,0.3,0.4,0.1,0.8
				c-0.1,0.3-0.3,0.7-0.6,1l-1.3,3.4c-0.1,0.2,0.1,0.6,0.2,0.8c0.2-0.1,0.4-0.3,0.7-0.6c0.6-1,1.1-2.1,1.7-3.2
				c0.2-0.8,0.6-1.5,0.9-2.3c0-0.2,0.2-0.3,0.3-0.6l0.7-1.3c0.2-0.7,0.4-1.4,0.8-2C750.6,162.3,750.9,161.4,751,160.4z M745.3,175.6
				c-0.1,0.1-0.1,0.2-0.1,0.3l0.3-0.4C745.5,175.6,745.4,175.6,745.3,175.6z M746,160.1c0.1-0.1,0.2-0.2,0.3-0.2l-0.1-0.1
				C746.1,159.9,746,160,746,160.1z M748.5,153.4l0.1,0.1l0.3-0.3c0,0-0.1-0.1-0.2-0.1L748.5,153.4z M750.6,156.7l0.2,0.2
				c0-0.1,0.1-0.2,0.2-0.4c-0.1-0.1-0.2-0.1-0.2-0.2C750.7,156.3,750.6,156.5,750.6,156.7z M751.1,163.5c-0.1-0.1-0.2-0.2-0.3-0.2
				c0,0-0.1,0.1,0,0.1c0,0,0,0.1,0.1,0.1C750.9,163.6,751,163.5,751.1,163.5z M752.3,156.8c0,0.1-0.1,0.1-0.2,0.2
				c-0.3,0.7-0.7,1.4-1.1,2.2l0.4,0.7l0.4,0.3c0.1-0.2,0.2-0.4,0.2-0.7v-1.3c0-0.4,0.2-0.8,0.2-1.2
				C752.4,157,752.3,156.9,752.3,156.8z M752.2,164.3l-0.1,0.2v0.1C752.2,164.5,752.2,164.4,752.2,164.3z M753,153
				c0.4-0.7,0.9-1.4,1.2-2.1c0.3-0.4,0.8-0.8,1-1.2c0.4-0.7,0.9-1.4,1.2-2.1c0.1-0.3,0.1-0.8,0.2-1.1c0.1-0.4,0-0.9,0.6-1
				c0.2,0,0.3-0.6,0.4-0.9h0.1c0-0.2,0-0.4-0.1-0.8c0-0.2,0-0.8-0.2-0.8c-0.3-0.1-0.9-0.3-1.1,0.3c-0.1,0.4-0.3,0.9-0.6,1.3
				c-0.1,0.2-0.3,0.6-0.6,0.8c-0.1,0.1-0.3,0.1-0.4,0.2c0.1,0,0.2,0.1,0.3,0.1c0.1,0.1,0.2,0.2,0.2,0.3c0,0.2-0.1,0.4-0.1,0.6
				c-0.6-0.6-0.8-0.6-1.1,0.1c-0.1,0.3-0.1,0.9,0,1.3c0.2,0.8,0,1.8-0.8,2.2c-0.8,0.4-1.3,1.9-0.9,2.5
				C752.6,153.4,752.8,153.4,753,153z M753.1,163.3l-0.2-0.2c-0.1,0.1-0.1,0.1-0.1,0.2c0,0,0,0.1,0.1,0.1
				C752.9,163.4,753,163.3,753.1,163.3z M753,156.9c0,0.2,0,0.4,0.1,0.8l0.3-0.3L753,156.9z M771.6,138.6h-0.7
				c-1.1,0.6-2.3,1-3.4,1.4c0-0.1,0-0.1,0.1-0.2c0-0.2,0.1-0.3,0.2-0.6c-0.1,0.1-0.3,0.1-0.4,0.2c-1.4,1-3,1.9-4.3,3
				c-1.2,1-2.2,2.2-3.3,3.3c-1.1,1.1-1.4,2.5-2,4c-0.2,0.8-0.7,1.7-1,2.4c0,0.2-0.2,0.4-0.3,0.8c-0.2,0.7-0.3,1.4-0.7,2.2
				c-0.4,1.1-1,2.3-1.4,3.5c-0.4,1.1-0.8,2.2-1.2,3.3c0,0.1,0,0.2,0.1,0.3c0.1,0,0.2-0.1,0.3-0.1c0.2-0.6,0.4-1.1,0.8-1.5l2.4-3.6
				c0.6-0.8,1-1.7,1.5-2.4c0.4-0.8,0.7-1.8,1.3-2.4c0.1-0.1,0.1-0.2,0.1-0.3h0.4c0.4-0.8,0.8-1.5,1.2-2.2c1-1.4,1.9-2.8,3-4.1
				c0.8-0.9,1.7-1.7,2.4-2.5c1.3-1.4,2.7-2.8,4.3-3.9C771.2,139.1,771.5,138.9,771.6,138.6z M753.4,156.1c0-0.1,0.1-0.1,0.1-0.2
				l-0.4-0.1L753.4,156.1z M755.4,146.8c-0.1,0-0.1-0.1-0.2-0.1L755.4,146.8z M755.8,146.9l-0.3-0.1h0.3V146.9z M756.4,142.3
				c0,0.1,0.2,0.2,0.4,0.2c0.1,0.1,0.3,0.1,0.4,0.1c0.2,0,0.4,0.6,0.7,0c0.2-0.3,0.6-0.4,0.7-0.7c0.3-1,0.7-2,0.9-2.9
				c0.1-0.3-0.1-0.8-0.1-1.1c0.1-0.1,0.3-0.2,0.4-0.4l-0.4-0.1v-0.1c-0.2-0.4-0.4-0.1-0.6,0.1c-0.3,0.3-0.4,0.9-0.7,1.3
				c-0.2,0.3-0.4,0.9-0.8,1.1c-0.6,0.1-0.9,0.4-1,1V142.3z M757.3,157.8l-0.1-0.1c-0.1,0.2-0.3,0.4-0.4,0.8v0.1
				C757,158.3,757.2,158.1,757.3,157.8z M757.1,141.6h-0.2c0-0.2,0.1-0.3,0.1-0.4c0.1-0.2,0.1-0.3,0.1-0.4c0.1,0.1,0.3,0.2,0.2,0.3
				C757.3,141.3,757.2,141.4,757.1,141.6z M757,146.6c0.1,0.1,0.2,0.1,0.3,0.1c0-0.1,0.1-0.2,0.1-0.3L757,146.6z M757.2,186.9
				c0.4-0.2,0.8-0.6,1.1-0.9l-1.2,0.7v0.2C757.1,186.9,757.2,187,757.2,186.9z M775,171.9c0-0.1-0.2-0.2-0.2-0.1
				c-0.1,0-0.2,0.1-0.3,0.3c0-0.2-0.2-0.4-0.1-0.7c0-0.2,0.1-0.4,0.1-0.8c0,0,0-0.2-0.1-0.2c0-0.1-0.2-0.1-0.3-0.1
				c0.1-0.2,0.1-0.6,0.2-0.8c0-0.1,0.3-0.1,0.4-0.1c0.6,0.6,0.4-0.1,0.6-0.3c-0.3-0.4-0.4-0.9-0.1-1.4c0.6-1.3,0.9-2.7,1.3-4
				c0.1-0.3,0.1-0.9,0.3-1c0.6-0.3,0.3-1.1,0.2-1.2c-0.3-0.6,0-1,0.2-1.4l0.1-0.8v-0.6c0.1-0.3,0.2-0.7,0.2-1c0-0.1-0.2-0.2-0.3-0.3
				c0,0.1-0.1,0.2-0.2,0.3c-0.1,0.7-0.3,1.3-0.6,2.1c-0.8,2.1-1.3,4.3-2.2,6.4c-0.8,2-1.8,4-2.7,6c-0.6,1.1-1.2,2.1-1.8,3.2
				c-0.4,0.8-1,1.5-1.5,2.4l-0.4,0.1c-0.6-0.4-0.3,0-0.3,0.3c-0.6,0.7-1.1,1.2-1.7,1.8v0.3c-0.3,0.3-0.7,0.6-0.9,0.9v-0.1
				c-0.2,0.3-0.4,0.4-0.7,0.8c-0.4,0.8-0.6,1.8-1.7,2c-0.2,0.1-0.6,0.4-0.8,0.7c0,0.1,0.1,0.3,0.1,0.6c-0.3,0.9-1,1.5-2,1.8
				c-0.6,0.1-0.6,0.3-0.4,0.8c-0.4,0.3-1.1,0.8-1.5,1.2c-0.1,0-0.1,0.3-0.1,0.4c0.1,0.1,0.3,0.2,0.4,0.2c0.4-0.1,0.9-0.2,1.3-0.2
				c1.3-0.2,2.5-0.9,3.6-1.9l-0.2-0.4h0.2v0.6l0.6-0.6c-0.4-0.7,0.1-1,0.4-1.3c0.1-0.3,0.6-0.4,0.9-0.7c-0.1,0.3-0.2,0.6-0.2,0.9
				l-0.6,0.2l0.2,0.2c0.1-0.2,0.2-0.3,0.3-0.4c0.9-0.2,1-0.9,1.4-1.5c-0.4-0.2-0.2-0.4,0-0.7c0.2-0.2,0.4-0.3,0.6-0.6
				c0.1-0.6,0.2-0.6,0.6-0.1c0.7,0.8,0.8-0.8,1.3-0.3v-0.3c0-0.1-0.1-0.2-0.1-0.3c-0.4,0-0.7-0.2-0.3-0.7l0.7-1.1
				c0.3-0.6,0.7-0.7,1,0c0,0.1-0.1,0.1-0.1,0.2c0,0,0,0.1,0.1,0.1v-0.3c0.2,0.1,0.3,0.3,0.4,0.4c0-0.3,0.1-0.8,0-1.1
				c-0.1-0.2-0.4-0.4-0.4-0.6c0.1-0.3,0.4-0.6,0.7-0.8c0,0.2-0.1,0.4-0.1,0.7c0,0.1-0.1,0.2-0.1,0.2c0.3,0.1,0.6,0.3,0.9,0.3
				c0.1,0,0.3-0.2,0.2-0.3c0-0.2-0.2-0.4-0.3-0.7c0.2-0.2,0.6-0.4,0.9-0.7c0.1-0.1,0.4-0.2,0.6-0.4c0.2-0.7,0-0.9-0.9-1.1
				c0.2-0.4,0.6-0.9,0.7-1.3c0.1-0.3,0.3-0.8,0.2-0.9c-0.3-0.6-0.3-0.4-0.2-0.9c0.2-0.8,1.1-0.4,1.5-0.9c0,0.1,0.2,0.3,0.2,0.3
				c-0.8,0.6-0.2,1,0,1.4c-0.2,0.2-0.6,0.3-0.8,0.6v0.7c0.1-0.1,0.3-0.2,0.4-0.4l0.3-0.8C775.3,173.5,775.6,173,775,171.9z
				 M758.2,140l0.2-0.3c0.1,0.1,0.1,0.1,0.1,0.2l-0.2,0.2C758.3,140,758.2,140,758.2,140z M760.1,154.7h-0.6c0-0.2,0-0.4,0.1-0.7
				l-0.7,0.7c0,0.1,0.2,0.2,0.2,0.3l0.3-0.3c0.1,0.2,0.1,0.4,0.2,0.6C759.8,155.1,760,154.9,760.1,154.7z M759.1,137.9
				c0.1-0.1,0.2-0.3,0.3-0.6v0.1v0.6c-0.1,0.2-0.2,0.3-0.3,0.4V137.9z M759.2,185.3c0.2-0.1,0.4-0.3,0.8-0.4c0-0.1,0-0.2,0.1-0.3
				c-0.1,0-0.3,0.1-0.4,0.2C759.5,185,759.3,185.1,759.2,185.3z M759.5,155.5c0,0,0,0.1-0.1,0.1v0.1
				C759.5,155.6,759.5,155.6,759.5,155.5z M759.6,135.2c0,0.1,0.1,0.1,0.2,0.3c0-0.2,0.1-0.3,0.1-0.4h-0.2L759.6,135.2z
				 M760.1,135.9c0,0.1,0.1,0.2,0.1,0.2c0.1,0,0.2-0.1,0.3-0.1c0-0.1,0.1-0.1,0.1-0.2c-0.1,0-0.2-0.1-0.3,0
				C760.2,135.8,760.1,135.9,760.1,135.9z M761.4,151.8l-0.1-0.1c-0.1-0.1-0.2-0.1-0.2-0.1c-0.1,0-0.2,0.1-0.3,0.2
				c0.1,0.1,0.2,0.2,0.3,0.2L761.4,151.8z M761.4,183.3c0,0,0,0.1,0.1,0.2c0-0.1,0.1-0.1,0.1-0.2l-0.1-0.1L761.4,183.3z M762.1,152
				c0-0.1-0.1-0.2-0.1-0.2c-0.1,0.1-0.2,0.1-0.2,0.2c0,0,0,0.1,0.1,0.1C762,152.1,762,152.1,762.1,152z M761.7,182.6
				c0,0,0.1,0.1,0.1,0.2l0.8-0.7c-0.1,0-0.1-0.1-0.1-0.1C762.2,182.2,762,182.3,761.7,182.6z M763.1,184v0.2
				c-0.1,0.1-0.2,0.2-0.3,0.2c0-0.1,0.1-0.2,0.2-0.3C762.9,184.1,763.1,184.1,763.1,184z M765.4,142.1l-0.1,0.1
				c-0.1,0.1-0.1,0-0.2,0l0.1-0.1C765.3,142,765.3,142.1,765.4,142.1z M766.5,176.9c0.1-0.1,0.2-0.1,0.2-0.2v-0.1L766.5,176.9z
				 M766.6,140.4c0.3-0.1,0.7-0.2,0.9-0.2l-0.8,0.4C766.7,140.6,766.7,140.5,766.6,140.4z M766.9,179.7c0.1-0.1,0.2-0.1,0.2-0.1
				s0,0.1-0.1,0.1c0,0.1-0.1,0.2-0.2,0.2C766.8,179.9,766.9,179.8,766.9,179.7z M767.5,140.1v0.1V140.1z M767.5,178.5v-0.1V178.5z
				 M767.7,181.3c0,0,0,0.1-0.1,0.1l-0.1-0.1c0-0.1,0.1-0.2,0.1-0.2C767.7,181.1,767.7,181.2,767.7,181.3z M768.6,176.6l0.7-1
				c0,0,0-0.1-0.1-0.3c-0.2,0.4-0.4,0.8-0.6,1.1V176.6z M769,182h-0.2c0,0.1,0.1,0.1,0.2,0.1V182z M769.4,180.9l-0.3,0.7
				c0.1,0,0.2,0.1,0.2,0.1c0-0.2,0.1-0.4,0.1-0.7V180.9z M769.9,174.2l0.1,0.1c0.1,0,0.2-0.1,0.2-0.2l-0.1-0.1
				C770,174,770,174.2,769.9,174.2z M770.4,173.5l0.3-0.3v-0.2c-0.1,0-0.2,0.1-0.2,0.1C770.4,173.2,770.4,173.4,770.4,173.5z
				 M770.7,177l0.1,0.1c-0.1,0.1-0.2,0.2-0.4,0.3C770.5,177.2,770.6,177.1,770.7,177z M771.5,176.7c0.1,0,0.2-0.2,0.3-0.2
				c0.1,0.1,0.2,0.3,0.2,0.4l-0.4,0.7l-0.3-0.2C771,177,771,176.8,771.5,176.7z M771.7,171.2c0-0.1,0.1-0.2,0.2-0.3
				c0,0,0-0.1-0.1-0.2c-0.1,0.1-0.2,0.3-0.2,0.4C771.5,171.1,771.6,171.1,771.7,171.2z M771.8,176.4v0.1V176.4z M773.6,176.1
				l-0.2-0.2c-0.2,0.1-0.3,0.1-0.7,0.2c0.2,0.2,0.4,0.3,0.4,0.3C773.2,176.4,773.3,176.3,773.6,176.1z M773.2,173.6V173
				c0,0.1-0.1,0.3-0.2,0.4C773,173.5,773.1,173.6,773.2,173.6z M773.8,171.2c0,0.1,0.1,0.2,0.1,0.2c-0.1,0.2-0.2,0.4-0.2,0.7h-0.2
				c0-0.1-0.1-0.3-0.1-0.3C773.5,171.5,773.7,171.3,773.8,171.2z M774,163.6c0,0.1,0.1,0.3,0.2,0.6h0.2c0-0.1,0.1-0.2,0.1-0.3
				c0-0.4,0.1-0.9,0.1-1.2l0.3-0.7c0-0.1-0.1-0.2-0.1-0.3c-0.1,0-0.2,0-0.3,0.1L774,163.6z M775,160c0.1,0.3,0.1,0.6,0.1,0.8
				l0.3-0.6c0.1-0.1,0.1-0.2,0.1-0.3l0.3-2.5c0-0.4,0.1-0.9,0.1-1.2c-0.1,0.3-0.3,0.8-0.3,1.1C775.3,158.2,775.2,159.2,775,160z
				 M777.3,167.6c0,0-0.3-0.2-0.4-0.1c-0.2,0.1-0.3,0.3-0.4,0.6l-0.3,0.9c-0.2,0.8-0.6,1.4-0.7,2.2c-0.1,0.1,0.1,0.2,0.1,0.4
				c0.2-0.1,0.3-0.1,0.4-0.2l0.7-1.8c0.2-0.4,0.3-0.9,0.4-1.4C777.2,168.1,777.3,167.8,777.3,167.6z M777.9,166.4
				c-0.1-0.1-0.1-0.1-0.1-0.2l-0.3,0.2c0.1-0.2,0.1-0.4,0.1-0.7c0.2-0.8,0.3-1.5,0.4-2.3c-0.3,1-0.6,2.1-0.9,3.1
				c-0.1,0.2-0.1,0.4-0.1,0.6c0.1-0.1,0.2-0.3,0.4-0.4v-0.2H777.9z M777.3,157c0,0.1,0.1,0.1,0.1,0.1c0.1-0.2,0.2-0.4,0.2-0.6
				c0-0.2-0.1-0.3-0.1-0.4c-0.1,0.1-0.2,0.2-0.2,0.4V157z"/>
			<path class="st5" d="M822.5,166.1c-0.2,1.9-0.1,3.8-0.4,5.4c-0.3,1.7-1.1,2.8-2.3,3.9c-0.1,0-0.3,0.2-0.3,0.6
				c-0.3,0.6-0.7,1.2-1.1,1.8c-0.9,1.2-2.1,2.3-3.3,3.2l-1.9,1.5c-0.3,0.1-0.3,0.3-0.3,0.4c0.2,0,0.6,0.1,0.7,0.1
				c0.3,0,0.7-0.1,0.9-0.1c-0.2,0.2-0.3,0.7-0.7,0.8l-1.3,0.9l-0.4,0.9l-1.1,1l-0.3,0.3c0.1,0.1,0.4,0.1,0.6,0.1
				c0.4-0.2,0.9-0.3,1.2-0.6h0.3v0.2l-0.3,0.3c-1.2,1.1-2.7,2.3-4.2,3.1c-1.7,1.2-3.5,1.9-5.6,2.7c-0.6,0.3-1.3,0.1-2.1,0h-0.8
				c-1.8,0.2-3.5-0.3-5.2-0.8c-2.2-0.4-3.4-2-5-3.2c-1-0.7-2-1.7-2.9-2.4c-1.4-1.2-2-2.7-2.4-4.1c-1.1-2.4-1.2-4.9-0.8-7.2
				c0.3-2.3,1-4.5,1.3-6.9V168l2-5.1l1.7-3.5c0.2-0.3,0.6-0.4,0.6-0.8c0.2-0.3,0.3-0.7,0.4-1c0.1-0.1,0.1-0.3,0.2-0.4l1.3-1.8
				c0.2-0.1,0.2-0.6,0.4-0.7l0.4-0.8c0.6-0.4,1-1,1.4-1.7l-0.4-0.1c0.2-0.2,0.4-0.7,0.7-0.7c0.7,0.1,1-0.6,1.3-0.9l1.3-1.8
				c0.2-0.2,0.9-0.4,0.4-1c0-0.1,0.3-0.3,0.4-0.4c2.8-2.7,5.6-5.4,9.3-7.2c1.4-0.9,3.3-1.2,5.2-1.7c2.1-0.8,4,0.1,5.8,1.2l1.1,0.3
				c0.9,0.3,1.5,0.7,1.8,1.5c0.2,0.2,0.4,0.2,0.8,0.4c0.8,0.6,1.2,1.2,1.8,2.4c1,2.9-0.7,5-1.2,7.4l-0.4,1.4c-0.8,1.4-1.3,3.1-2,4.5
				c-0.9,1.8-1.8,3.6-3,5c-1.2,1.3-2.8,2.3-4.2,3c-1.3,0.8-2.8,1-4.3,1.3c-1.4,0.2-3,0.3-4.5,0.3c-0.9,0-1.8-0.2-2.5-0.3
				c-1.9-0.4-3.8-0.7-5.6-1.2c-0.8-0.1-1.1,0.1-1.4,0.7c-0.4,1.5-1.1,3-1.7,4.4l-1,3.5c-0.1,0.4-0.4,0.8-0.7,1.3
				c0,0.1-0.1,0.2-0.1,0.3l-0.2,2.9c-0.3,2.8-0.3,5.8,1.9,8.3c0.8,1,2,1.7,3.4,1.5c3.5-0.2,6.2-1.4,9-3.1c0.8-0.4,1.5-0.9,2.3-1.2
				c0.4-0.3,1.1-0.3,1.8-0.6c1.4-0.7,3-1.4,4.4-2.2c1.3-0.9,2.4-1.8,3.8-2.7c0.2-0.2,0.3-0.8,0.6-1.1c-0.4,0.1-0.8,0.3-1,0.7
				l-3.9,2.3c-1,0.8-2.2,1.4-3.4,2.3c-0.2,0-0.3,0-0.4,0.1l0.2-0.6c1.2-0.7,2.4-1.3,3.5-2.2c0.6-0.7,1.5-1.2,2-2.2
				c0.4-1.1,1.5-1.8,2.2-2.4c2.2-2.3,3.5-5.1,5-8l0.8-2.3c0.1-0.1,0.2-0.2,0.3-0.4C822,165.6,822.5,165.9,822.5,166.1z M787.3,172.6
				l0.1,0.1C787.4,172.7,787.4,172.6,787.3,172.6c-0.1-0.8-0.1-1.3,0.4-1.8v-0.2c-0.2-1.4,1.7-1.7,1.2-3c-0.1-0.1,0.1-0.1,0.1-0.1
				l0.4-0.8c-0.2,0-0.3-0.1-0.6-0.1h-0.2c0.3-0.2,1.1-0.4,0.4-1.1h0.2c0.4,0.2,0.9-0.1,0.9-0.4c0-0.3-0.1-0.6-0.6-0.9
				c0-0.4,0-0.7-0.2-1l-0.4,0.6c-0.6,1.4-1.3,2.9-1.9,4.5c-0.8,2.5-1.3,5.2-2.1,7.9c-0.1,1.1-0.1,2.4-0.2,3.6v0.4
				c0.1,0,0.4,0,0.6-0.1l0.1-0.6c0.2-1.2,0.2-2.4,0.6-3.4C786.2,174.8,786.8,173.7,787.3,172.6z M789.3,172.1c0,0-0.2,0.1-0.2,0.2
				c-0.2,1.1-0.9,2.3-1,3.5c-0.2,0.3-0.1,1-0.4,1.2c-0.9,0.8-0.6,1.9-0.7,2.8c-0.4,0.6-0.2,1.2-0.4,2c0,0.1-0.1,0.2-0.1,0.4h0.3
				c0.3-0.1,0.7-0.1,0.7-0.3c0.2-0.8,0.2-1.5,0.3-2.3c0.2-1.1,0.3-2.3,0.6-3.4C788.5,174.7,789.1,173.4,789.3,172.1z M787.5,184
				c-0.2-0.1-0.6-0.2-0.7-0.1c0,0,0,0.1-0.1,0.2c0,0.1,0.1,0.2,0.1,0.2C786.9,184.3,787.2,184.2,787.5,184z M789.5,171.3l-0.1-0.1
				c-0.1,0.2,0,0.6-0.1,0.8L789.5,171.3z M790.8,162.9c0.6,0,0.8-0.3,0.7-1c0.7-0.1,0.4-0.3,0-0.8l0.7-1.1c0.8,0.1,0.9-0.4,1.1-0.9
				l0.1-0.1c0.6-0.1,0.8-0.8,0.6-1.3h-0.6c0.3-0.2,0.7-0.6,1-0.7h0.2c-0.1,0,0,0.1-0.1,0.2h0.1V157c0,0,0.4-0.1,0.4-0.2
				c-0.3-0.4,0.2-0.6,0.4-0.9v0.1l0.2-0.2l0.4-0.7l0.2-0.4c0.1,0,0-0.1,0-0.1v0.1l-0.6-0.3h-0.2l0.1-0.1c0.2-0.1,0.4-0.3,0.7-0.3
				c0.9,0.1,1.2-0.7,1.9-1.2c0.1-0.3-0.4-1.1,0.4-0.8c0-0.2,0.1-0.3,0.1-0.4c-0.1-0.1-0.1-0.3,0-0.6l0.6-0.7l0.1-0.1h-0.2
				c-0.7,0.4-1.4,0.9-2,1.5c-0.7,0.6-1.1,1.4-1.7,2.1c-2.1,2.5-4.1,5.1-5.4,8C789.8,162.4,790,162.9,790.8,162.9z M791,161.9h0.4
				c0,0.1,0,0.2-0.1,0.2l-0.2,0.3L791,161.9z M792,159.7v0.3c-0.1-0.1-0.1-0.1-0.2-0.1C791.9,159.9,791.9,159.8,792,159.7z
				 M792.1,160H792H792.1z M794.5,150.4h-0.2c0-0.1,0-0.2,0.1-0.2l1.2-1.5c0,0,0.1,0,0.1-0.1v0.2
				C795.4,149.2,794.8,149.8,794.5,150.4z M802.3,153.5l-4,4.8c-1.3,1.5-2.4,3.2-3.4,4.9c-0.1,0.6,0,0.6,0.3,0.6h1.8
				c0.1,0.1,0.2,0.1,0.4,0.2c-0.1,0-0.2,0-0.2,0.1c0,0,0.1-0.1,0.2-0.1c0.3-0.1,0.9-0.1,1.2-0.1c0.4-0.1,0.7-0.4,1-0.4
				c1.5-0.1,3.2-0.6,4.8-1.1c3.1-1.3,5.9-3.2,7.7-6c1.2-2.2,2.4-4.4,3.2-7c0.4-1.5,0.7-3.2,1.1-4.6c0.1-0.2,0-0.4-0.1-0.6l-0.4,0.1
				c-0.6,0.2-1.2,0.6-1.8,0.7c-1.9,0.7-3.6,1.4-5.1,2.7C806.6,149.3,804.4,151.3,802.3,153.5z M795.7,155.8c-0.1,0-0.2,0.1-0.2,0.1
				l-0.1-0.1H795.7z M796.8,153.4l-0.1-0.1l0.2-0.2v0.2C796.8,153.2,796.8,153.4,796.8,153.4z M813.5,185.8l-0.6,0.3v-0.2
				c0-0.1,0.1-0.2,0.2-0.2C813.2,185.7,813.5,185.7,813.5,185.8z M818.4,178.9c0.1-0.1,0.3-0.1,0.6-0.3l-0.1,0.7
				c-0.9,0.9-1.5,1.7-2.2,2.5c-0.3,0.3-1,0.3-1.5,0.4h-0.1c0.1,0,0.1-0.1,0.1-0.2C816.1,180.9,817.1,179.9,818.4,178.9z
				 M817.4,177.4c-0.1,0-0.2,0.1-0.2,0.1c0,0.2,0.1,0.2,0.1,0.3l0.1-0.3V177.4z M820.8,175.6c0.2,0.2,0.2,0.3,0.2,0.3
				c-0.3,0.9-0.8,1.5-1.7,2.1c0-0.2,0-0.7,0.1-0.8l1.1-1.3C820.7,175.8,820.9,175.8,820.8,175.6z"/>
			<path class="st5" d="M870,133.6c-1.7,1.1-3.5,1.2-5.4,1.7l-5,1.1l-4.1,0.9c-1.5,0.4-3.1,0.8-4.5,1.3c-0.6,0.1-1.1,0.6-1.3,1
				c-0.6,1.1-0.8,2.2-1.2,3.3l-1,2.1c-1.3,3.2-2.7,6.4-4.1,9.6l-2.1,4.3l-4,9.1c-0.4,1-0.8,2.1-1.2,3.2c-1.2,3.9-2.5,7.7-3.9,11.6
				c-0.2,0.7-0.2,1.3-0.3,1.9c0.6-0.3,1.1-0.7,1.7-1.1c1.8-1.5,3.7-3.2,5.4-4.9c1.2-1.2,2.3-2.4,3.4-3.6h0.6c0.3-1.1,0.4-1,1.4-1.4
				c0.9-0.3,1.9-0.8,2.1-1.9c0-0.3,0.4-0.6,0.7-0.9c0.6,0.9,0.6,1.5-0.2,2.4c-0.4,0.6-0.7,1.4-1.1,2.1c-0.2,0.3-0.6,0.7-0.9,1
				c-0.1,0.1,0,0.3-0.1,0.4h0.4c0.1,0,0.2,0,0.3-0.1c0,0.2,0.1,0.3,0,0.4c-0.2,0.4-0.4,0.9-0.8,1.1c-1.1,0.9-1.4,2.1-1.5,3.4
				c0,0.4-0.2,0.8-0.3,1.1c0,0.2-0.2,0.4-0.2,0.6c0.6,1.4-0.9,2-1.4,2.9c-0.6,1.2-1.4,2.1-2.5,3c-2.1,1.7-4.2,3.4-6.3,5.2
				c-0.4,0.3-0.8,0.8-1.2,1.2c-1.9,1.4-4.3,0.9-5.6-1.2c-0.4-0.8-1.1-1.5-1.2-2.5c0-0.2-0.2-0.4-0.4-0.6c-0.8-0.2-1-0.9-0.9-1.5
				c0-1.1,0-2.2,0.1-3.3c0.2-2.5,0.7-5.1,1.7-7.4l0.3,0.7c0.1-0.3,0.3-0.6,0.3-0.8c0.7-2,1.2-3.9,1.8-5.9c0.2-0.8,1-1.7,0.2-2.5
				c-0.1,0,0-0.2,0-0.2c1.7-0.9,1.5-2.7,2.2-4c0.9-1.9,1.7-3.9,2.3-5.7c0.2-0.4,0.1-0.9,0.2-1.3c0-0.1-0.1-0.2-0.1-0.3
				c1.9-1.9,2.4-4.6,3.5-7c0.7-1.4,0.9-3.1,1.7-4.5c0.3-0.6,0.2-1.5,1.1-1.8c0.2,0,0.2-0.4,0.2-0.6c0-0.4,0-0.8,0.4-1.2
				c0.3-0.2,0.1-1,0.1-1.5c0-0.1-0.7-0.1-0.9-0.1c-1.2-0.1-2.3-0.3-3.5-0.3c-2.2-0.1-3.7-1.8-5.2-2.9c-0.9-0.6-1.3-1.9-1.8-3
				c-0.2-0.7,0.9-1.9,1.5-2c2.3-0.4,4.6-0.7,7-1.1c1.5-0.3,3.1-0.8,4.6-1.2c0.8-0.1,1.5-0.2,2.2-0.6c0.6-0.2,1.1-0.7,1.4-1.2l4-8.3
				c0.9-1.8,1.7-3.4,2.4-5.2c0.1-0.2,0.2-0.4,0.2-0.7c0.2-1.2,1.3-1.8,2.3-1.1c1.1,0.7,1.8,1.4,1.7,2.8c0,0.4,0.2,0.8,0.2,1.2
				c0.2,1.9,0.6,3.8,0.6,5.8c0,0.8-0.6,1.7-0.9,2.5c-0.1,0.3-0.1,0.7-0.2,1.1l1.1,0.1c1.9-0.2,3.8-0.6,5.5-0.7
				c1.5-0.1,3.1,0.1,4.5,0.1c0.3,0.1,0.7,0.1,1,0.1c1.4,0,2.3,1.1,3.1,2c0.2,0.1,0,0.8-0.2,1c-0.7,0.6-0.7,1,0.2,1.4
				C871,132.6,870.9,133,870,133.6z M825.5,176.9c-0.1-0.3-0.2-0.4-0.1-0.4c0.1-0.4,0.3-0.8,0.6-1.2c0,0.1,0.1,0.2,0,0.3
				C825.9,175.9,825.8,176.4,825.5,176.9z M829,176.7l-0.3-1c-0.1,0-0.2,0-0.2-0.1c0,0.1-0.1,0.1-0.1,0.2c0.1,0.6-0.2,0.9-0.8,0.9
				c-0.1,0-0.2,0.1-0.2,0.2l0.1,0.1L829,176.7z M829.5,172.7c-0.1-0.1-0.2-0.2-0.3-0.2l-0.9-0.4l-0.3,0.9c-0.1,0,0,0.1,0.1,0.1
				c0.2-0.7,0.6-0.1,0.9-0.1C829.2,173,829.3,172.8,829.5,172.7z M829.9,168.8l-0.3-0.2l-0.3,0.7c0,0,0,0.2,0.1,0.4
				C829.5,169.4,829.7,169.2,829.9,168.8z M830.2,167.3c0.1-0.3,0.3-0.6,0.4-0.9v-0.1c-0.1,0.3-0.3,0.7-0.6,1H830.2z M831.1,169.4
				c-0.1-0.1-0.2-0.2-0.2-0.3c-0.1,0.1-0.2,0.2-0.2,0.3s0.1,0.2,0.3,0.6C831,169.6,831.1,169.5,831.1,169.4z M831.2,165.2l-0.1,0.1
				C831.1,165.2,831.1,165.2,831.2,165.2z M832.2,163.9l-0.1,0.1c0.6-0.3,0.1-0.6,0-0.8c-0.1-0.1-0.4,0-0.4,0.1
				c-0.2,0.4-0.2,1-0.3,1.4C831.5,164.4,831.9,164.2,832.2,163.9z M832.4,165.7c0,0.1-0.1,0.1-0.2,0.2l-0.3,0.4
				c-0.1,0.1-0.1,0.3-0.2,0.4c0.2,0,0.6,0,0.6-0.1C832.3,166.4,832.4,166.1,832.4,165.7z M832.7,157.9l-0.3,0.3v-0.3
				c0-0.1,0.1-0.1,0.1-0.2C832.6,157.7,832.7,157.8,832.7,157.9z M835.3,159.4c-0.1-0.1-0.3-0.2-0.6-0.1c-0.7,0.2-1.2,0.6-1.9,0.9
				c-0.1,0.1-0.1,0.3-0.2,0.6v0.3c0,0-0.1,0.1-0.1,0.2h0.1c0-0.1,0.1-0.2,0.1-0.2c0-0.1,0-0.2-0.1-0.3l2.2-0.9
				c0,0.1-0.1,0.1-0.1,0.2v0.3c0-0.2,0.1-0.3,0.1-0.6l-0.1-0.1l0.1-0.1C834.9,159.6,835.2,159.4,835.3,159.4z M833.4,159.2
				c0,0,0,0.1,0.1,0.1c0.1-0.3,0.2-0.6,0.2-0.9L833.4,159.2z M836.1,156.9c-0.2-0.2-0.3-0.3-0.4-0.3c-0.2,0-0.3,0-0.4,0.1
				c0,0.1,0.1,0.2,0.2,0.2H836.1z M835.5,154c0,0,0,0.2,0.1,0.3l0.3-0.3c0,0-0.1-0.1-0.1-0.2L835.5,154z M837.4,153.2l-0.3-0.2
				c-0.2,0.1-0.3,0.1-0.4,0.2c0,0.1,0.1,0.2,0.1,0.4L837.4,153.2z M838,139.8c-0.1-0.1-0.1-0.3-0.1-0.4c0,0.1-0.1,0.3-0.1,0.6
				C837.9,139.8,838,139.8,838,139.8z M839.9,139.4c0-0.1-0.1-0.2-0.2-0.2c-0.2,0-0.4,0.1-0.8,0.1c0,0,0,0.2-0.1,0.3
				C839.2,139.5,839.5,139.5,839.9,139.4z M840.9,138.9l-0.7,0.4v0.1c0.2,0,0.4-0.1,0.7-0.2V138.9z M842,133c0,0.1,0.1,0.1,0.1,0.2
				l0.3,0.3c-0.1-0.3-0.1-0.6-0.2-0.6H842z M842.4,136.1c-0.1,0-0.1-0.1-0.2-0.1l-0.1,0.1v0.1C842.1,136.2,842.2,136.2,842.4,136.1z
				 M842.6,138.6h-0.1c0,0-0.1,0.1,0,0.1c0,0.1,0.1,0.1,0.1,0.1C842.6,138.8,842.7,138.6,842.6,138.6z M853.3,133.9
				c0.2,0,0.4-0.1,0.7-0.2v-0.2h-0.8c-0.3,0-0.7,0.1-1.1,0.2l-2.9,0.7H848c-1,0.1-1.9,0.2-2.9,0.4c-0.4,0-0.9,0.2-1.2,0.4
				c-0.4,0.1-0.8,0.3-1.1,0.6c0.3,0,0.9,0.1,1.2,0c1.2-0.2,2.4-0.6,3.6-0.8c0.6-0.2,1.3,0,1.5-0.7c0.3,0.3,0.7,0.4,1.2,0.3
				c0.6-0.2,1.2-0.3,1.8-0.4L853.3,133.9z M844.1,132.5c0,0.2,0.1,0.7,0.2,0.7c0.6,0,1-0.1,1.5-0.1v-0.7c0-0.1-0.2-0.2-0.3-0.3
				l-0.6,0.6C844.7,132.5,844.5,131.9,844.1,132.5z M845,132.7v-0.1c0,0,0,0.1,0.1,0.1H845z M845.5,131.8c0.1,0,0.2,0,0.3-0.1
				c0.1,0,0.1-0.1,0.2-0.1h-0.2c-0.1,0-0.2,0.1-0.3,0.1V131.8z M846,138.4h-0.3c0,0.1,0,0.1-0.1,0.2h0.4V138.4z M846.5,131.6
				l-0.8,0.4c0.2,0.1,0.6,0.2,0.9,0.6c0.4,0.4,0.7,0.1,0.9-0.2v0.1c0.6-0.1,1.2-0.2,1.7-0.4c0.7-0.2,1.3-0.6,2-0.1
				c0.1,0,0.2,0,0.3-0.1c0.6-0.8,1.3-0.3,2.1-0.3c0.1,0,0.3-0.1,0.4-0.2c-0.1-0.1-0.2-0.4-0.3-0.4c-0.8,0-1.5,0.1-2.2,0.2
				c-0.4-0.7-1-0.1-1.5-0.1c0.6,0,1,0,1.5,0.1c-0.8,0.6-1.8,0.2-2.5,0.6c0.1-0.3-0.1-0.3-0.3-0.4c-0.8-0.1-1.1,1-1.9,0.3
				C846.7,131.5,846.6,131.6,846.5,131.6z M851.4,137.4c-0.3-0.2-0.4-0.9-1-0.3c-0.2,0.1-0.4,0.1-0.7,0.2c0.1,0,0.2,0.1,0.4,0.1
				l-0.4,0.3c-0.1,0-0.2,0-0.3-0.1c-0.7-0.4-1.3,0.2-2.1,0.1c-0.1,0-0.3,0.2-0.6,0.4l0.2,0.2l2.8-0.7c0.6-0.1,1-0.1,1.5-0.1
				L851.4,137.4z M848,170.7c-0.2,0-0.6,0.1-0.9,0.1l0.6-0.3c0,0-0.1-0.1-0.1-0.2l0.2,0.2C847.9,170.6,847.9,170.7,848,170.7z
				 M847.4,132.1v0.2c0,0,0-0.1-0.1-0.2H847.4z M848.6,131.5c0.1,0,0.2,0.1,0.3,0.1h-0.2C848.7,131.6,848.7,131.5,848.6,131.5z
				 M850.7,137.4h-0.4c0-0.1,0.1-0.2,0.2-0.3C850.5,137.2,850.7,137.3,850.7,137.4z M854.9,134.6c-0.2,0.1-0.3,0.1-0.4,0.1
				c-0.2,0.1-0.4,0.1-0.7,0.1v0.1c0.2-0.1,0.4-0.1,0.7-0.2c0.1,0.1,0.2,0.1,0.4,0.1V134.6z M854.9,131.1l-0.3-0.2
				c0.1,0.1,0.2,0.2,0.2,0.3C854.7,131.1,854.9,131.1,854.9,131.1z M855.7,130l-0.4,0.1l0.1,0.1L855.7,130z"/>
			<path class="st5" d="M889.4,142.2c-0.9,0.1-1.9,0.3-2.8,0.3c-2.2,0-3.9,1-5.6,2.1c-2.1,1.1-3.8,2.8-5.7,4.3
				c-3.1,2.8-5.8,5.8-8.6,8.7l-0.6,0.7c-2.8,3.9-5.6,7.4-8.2,11.3c-2.1,3.4-5.9,10.7-7,14c-0.1,0.3-0.1,0.7-0.2,1l0.2,0.2
				c0.1,0.2,0.3,0.2,0.4,0.1c1.2-0.9,2.3-1.9,3.2-2.9c1.2-1.3,2.4-2.5,3.4-3.9l3.1-3.5c1.2-1.2,2.3-2.5,3.5-3.7
				c0.2-0.4,0.7-0.7,1.2-0.8c-0.1,1.2-0.7,2.1-1.4,2.9l-0.6,0.7c0.7-0.2,1.8,0,2-0.4c0.2-0.4,0.8-1,1.1-1.7c0.8-1.1,1.9-2.2,2.7-3.3
				c0.9-1,1.4-2.4,2.3-3.2c0.2-0.2,0.6-0.3,0.8,0c0.1,0.3,0.1,0.6-0.1,0.8c-0.4,0.3-0.7,0.8-0.9,1.1c-0.3,0.4-0.9,0.9-1,1.2
				c-0.9,3.2-4.6,4.6-5.2,6.9c0,0.1-1.4-0.7-1.9-0.9c-0.4,0.7-0.8,1.4-1.3,2.1c-0.1,0.1-0.2,0.3-0.2,0.6l0.2,0.4h0.3
				c0.4-0.2,0.7-0.6,0.8-0.9c0-0.2,0.2-0.3,0.4-0.6c0.2-0.2,0.8-0.1,0.9,0.1c0,0.2,0,0.4-0.1,0.6c0,0.2-0.3,0.4-0.6,0.8
				c-0.7,0.7-1.1,1.5-1.3,2.7c0,0.2,0.2,0.4,0.3,0.6c0,0.1,0.3,0.1,0.4,0c1.8-2,3.5-3.8,5.2-6c1.7-2.2,3.3-4.4,5.2-6.5
				c1-1.3,1.4-2.9,2-4.4c0-0.2-0.1-0.6-0.2-0.9c-0.1-0.3-0.1-0.8,0.1-1.2c0.3-0.3,0.4-0.9,0.7-1.4c0.1-0.3,0.2-1-0.1-1.4
				c-0.9,0.4-1.4,1.1-2,1.9c-0.7,1-1.5,2-2.4,3c-0.2,0.2-0.6,0.3-1,0.2c0-0.2,0-0.6,0.2-0.9c0.4-0.4,0.8-1.1,1.3-1.7
				c1.1-1,1.9-2.2,2.5-3.5l1-1.1c0.7-0.9,1.2-1.5,1.5-2.4c0.2-0.3,0.7-0.6,1-0.3c0.6,0.1,1.1,0.4,1.5,0.4c1.8,0.1,3.2,1.3,4.6,1.8
				c0.6,0.1,0.9,0.8,0.7,1.2l-4.8,14.4c-1.3,4.1-2.4,8.3-3.2,12.5c-0.1,0.7-0.1,1.5-0.2,2.1v2.3c-0.1,0.6-0.8,1.1-1.3,1.2
				c-0.4,0.1-0.9,0.1-1.2,0.1c-0.4,0.1-0.8,0-1.2-0.3c-0.8-0.4-1.5-1.1-2.1-1.7c-0.6-0.9-0.9-1.8-1.4-2.5c-0.4-0.8-0.7-1.7-0.1-2.3
				c0.6-1,0.7-2.1,1.4-2.9c0.1-0.2,0.1-0.7,0.1-1c-0.2-0.4-0.1-1.1,0.2-1.5c1.1-1.3,1.4-3.1,2-4.8c0.1-0.3,0.3-0.7,0.2-1l-0.2-0.1
				c-0.4,0.3-0.9,0.6-1.1,0.9c-1,1.2-2.1,2.4-3.2,3.9c-1.4,2-3.1,3.9-4.6,5.9l-3.8,4.6c-1,1.3-2.3,2.4-3.6,3.5
				c-2.3,2.2-5.1,3-8.1,2.3c-0.4,0-0.9-0.1-1.1-0.4c-1.9-1.8-3.4-3.6-3.9-6.3c0-0.2-0.1-0.3-0.1-0.6c0.1-1.9,0.1-3.7,0.7-5.3
				c0.3-0.8,0.4-1.7,0.9-2.4c0.2-0.4,0.7-0.3,1.1-0.4l0.9-2.8c0.1-0.1,0.2-0.2,0.4-0.3c0.9-0.1,1-0.9,1.2-1.5c0-0.2-0.2-0.3-0.6-0.2
				c-0.3,0-0.6-0.3-0.4-0.7l1.1-1.9c0.2-0.6,0.8-0.9,1.5-0.8c0.2,0,0.6-0.3,0.7-0.6c0.3-0.7,0.7-1.5,1-2.3c0.8-0.4,1.2-0.9,1.3-1.8
				c0.4-0.2,0.7-0.8,0.9-1.1c0.1-0.1,0.1-0.2,0-0.3c0-0.3-0.2-0.3-0.4-0.1c-0.1,0.1-0.3,0.1-0.4,0.1c0.1-0.3,0.1-0.6,0.1-0.7
				c1.7-2.4,3.2-4.9,5.1-7c0.9-0.9,1.9-1.7,2.3-2.9c0.1-0.2,0.2-0.4,0.4-0.6c0.9-0.6,1.2-1.5,1.9-2.4c1-0.9,2-1.9,2.9-3
				c0.6-0.7,0.8-1.7,1.7-2.1c1.1-2,2.8-3.2,4.4-4.5c2.4-2,5.1-3.6,8-5.1c2.5,1.2,5,2.3,7.3,3.6c0.8,0.4,1.5,0.8,2,1.5
				C890.5,140.6,890.3,142,889.4,142.2z M852.5,165.2v1.1c-0.1,0-0.2-0.1-0.2-0.1C851.7,165.7,851.8,165.6,852.5,165.2z M852.6,165
				c0.1-0.2,0.1-0.2,0.3-0.3C852.9,164.8,852.8,165,852.6,165z M853.9,163.2v1.3h-0.7V164C853.2,163.5,853.4,163.3,853.9,163.2z
				 M865.9,170.1c0.1-0.2,0.1-0.3,0.3-0.4C866.3,169.8,866,170,865.9,170.1z M869.8,164.5c0.3-0.4,0.7-0.7,1.1-0.7
				c-0.1,0.3,0,0.7-0.2,0.9c-1,1.5-2,3.1-3.4,4.3c-0.2,0.2-0.4,0.3-0.8,0.3c0-0.8,0.3-1.2,0.8-1.8
				C868.4,166.7,869.1,165.6,869.8,164.5z M872.2,167.4c0.2-0.2,0.4-0.3,0.7-0.3l0.2,0.3c-0.1,0.3-0.3,0.7-0.6,0.6
				c-0.1,0-0.3-0.1-0.4-0.2C872.1,167.6,872.2,167.4,872.2,167.4z M874.2,163.9c-0.1-0.2-0.2-0.3-0.2-0.6c0-0.2,0-0.4,0.1-0.6
				l0.4-0.3c0.1,0.3,0.2,0.7,0.2,1C874.9,163.5,874.3,164,874.2,163.9z"/>
		</g>
		<g>
			<g>
				<g>
					<g>
						<g>
							<g>
								<g>
									<path class="st2" d="M285.1,142.6c8.4-2.6,14.2-8.1,14.2-14.6c0-8.9-11.3-16.2-25.2-16.2c-9.4,0-17.6,3.3-21.9,8.2
										L231.6,106L211,120.1c-4.3-4.9-12.5-8.2-21.9-8.2c-13.9,0-25.2,7.2-25.2,16.2c0,6.4,5.8,11.9,14.2,14.6l-23.4,16l20.7,14.2
										c4.3-4.9,12.5-8.1,21.8-8.1c13.9,0,25.2,7.2,25.2,16.2c0,6.4-5.7,11.9-14.1,14.5l10,6.8l13.3,9.1l13.5-9.3l9.7-6.7
										c-8.3-2.6-14.1-8.1-14.1-14.5c0-8.9,11.3-16.2,25.2-16.2c9.3,0,17.5,3.3,21.8,8.1l20.7-14.2L285.1,142.6z M231.5,196.2
										c-1.4,0-4-1.5-4-3.5c0-2,2.8-5,4.2-5c1.4,0,3.9,2.9,3.9,4.8S232.9,196.2,231.5,196.2z"/>
									<g>
										<g>
											<path class="st2" d="M214.3,177.3c0,3.4-2.7,6.1-6.1,6.1c-3.4,0-6.1-2.7-6.1-6.1c0-3.4,2.7-6.1,6.1-6.1
												C211.5,171.2,214.3,174,214.3,177.3z"/>
										</g>
										<g>
											<path class="st2" d="M261.1,177.3c0,3.4-2.7,6.1-6.1,6.1c-3.4,0-6.1-2.7-6.1-6.1c0-3.4,2.7-6.1,6.1-6.1
												C258.4,171.2,261.1,174,261.1,177.3z"/>
										</g>
									</g>
								</g>
							</g>
						</g>
					</g>
					<g>
						<path class="st2" d="M363,164.7c2-2.2,4.1-4.4,6.2-6.8c2.1-2.4,4.2-4.7,6.2-7c2-2.3,3.9-4.5,5.7-6.6c1.8-2.1,3.3-3.9,4.6-5.4
							h24.2c-4.8,5.5-9.5,10.8-14.1,15.9c-4.6,5-9.6,10.3-15.1,15.6c2.7,2.5,5.6,5.4,8.5,8.8c2.9,3.4,5.7,7,8.5,10.6
							c2.7,3.7,5.2,7.3,7.5,11c2.3,3.7,4.2,7,5.7,10h-23.4c-1.5-2.4-3.1-5-5-7.9s-3.8-5.8-5.9-8.6c-2.1-2.9-4.3-5.6-6.6-8.3
							c-2.3-2.6-4.6-4.9-6.9-6.7v31.5h-20.4V108l20.4-3.3V164.7z"/>
						<path class="st2" d="M476.7,208.3c-3.5,1-7.9,1.9-13.4,2.8c-5.5,0.9-11.2,1.3-17.2,1.3c-6.1,0-11.2-0.8-15.2-2.5
							c-4.1-1.6-7.3-3.9-9.6-6.9c-2.4-3-4.1-6.5-5.1-10.6c-1-4.1-1.5-8.6-1.5-13.5v-40.1H435v37.6c0,6.6,0.9,11.3,2.6,14.2
							c1.7,2.9,5,4.4,9.7,4.4c1.5,0,3-0.1,4.6-0.2c1.6-0.1,3.1-0.3,4.4-0.5v-55.5h20.4V208.3z"/>
						<g>
							<path class="st3" d="M529.1,170.2c-3.2,3.7-6.4,7.7-9.7,11.8c-3.2,4.1-6.2,8.1-8.8,11.9h32.5c1.2-1.8,2.5-3.7,3.9-5.7
								c2.7-3.8,5.5-7.6,8.5-11.4c3-3.8,5.9-7.5,8.8-11.1c2.9-3.6,5.6-6.9,8.1-9.8h-30.6c-1.1,1.2-2.3,2.6-3.7,4.1
								C535.3,163,532.3,166.4,529.1,170.2z"/>
							<path class="st2" d="M543.1,193.8h-32.5c2.6-3.8,5.6-7.8,8.8-11.9c3.2-4.1,6.5-8,9.7-11.8c3.2-3.7,6.2-7.2,9-10.3
								c1.4-1.5,2.6-2.9,3.7-4.1h0v-17h-54.2v17h30.6c-2.5,2.9-5.2,6.2-8.1,9.8c-2.9,3.6-5.9,7.3-8.8,11.1c-3,3.8-5.8,7.6-8.5,11.4
								c-2.7,3.8-5,7.3-6.9,10.6v12h54.2v-12C541,197.2,542,195.5,543.1,193.8z"/>
							<path class="st1" d="M564.8,193.8c2.6-3.8,5.6-7.8,8.8-11.9c3.2-4.1,6.5-8,9.7-11.8c3.2-3.7,6.2-7.2,9-10.3
								c2.8-3.1,5-5.6,6.6-7.4v-13.7h-54.2h-3v17h0h30.6c-2.5,2.9-5.1,6.2-8.1,9.8c-2.9,3.6-5.9,7.3-8.8,11.1
								c-3,3.8-5.8,7.6-8.5,11.4c-1.4,2-2.7,3.8-3.9,5.7c-1.1,1.7-2.1,3.3-3,4.9v12h5.3h54.2v-17H564.8z"/>
						</g>
						<polygon class="st1" points="610.1,108 610.1,210.8 630.5,210.8 630.5,104.7 						"/>
						<path class="st1" d="M635.7,175.4c0-6.4,1-12,2.9-16.7c2-4.8,4.5-8.8,7.7-12c3.2-3.2,6.9-5.6,11-7.2c4.1-1.6,8.4-2.5,12.8-2.5
							c10.2,0,18.3,3.1,24.2,9.4c5.9,6.2,8.9,15.4,8.9,27.5c0,1.2,0,2.5-0.1,3.9c-0.1,1.4-0.2,2.7-0.3,3.8h-46.2
							c0.5,4.2,2.4,7.5,5.9,10c3.5,2.5,8.1,3.7,13.9,3.7c3.7,0,7.4-0.3,11-1c3.6-0.7,6.5-1.5,8.8-2.5l2.7,16.5
							c-1.1,0.5-2.6,1.1-4.4,1.6c-1.8,0.5-3.9,1-6.1,1.4c-2.2,0.4-4.6,0.8-7.2,1c-2.6,0.3-5.1,0.4-7.7,0.4c-6.5,0-12.1-1-16.9-2.9
							c-4.8-1.9-8.8-4.5-11.9-7.9c-3.1-3.3-5.5-7.3-7-11.8C636.4,185.6,635.7,180.6,635.7,175.4z M683.5,167.6
							c-0.1-1.7-0.4-3.4-0.9-5.1c-0.5-1.6-1.3-3.1-2.3-4.4c-1.1-1.3-2.4-2.3-4-3.1c-1.6-0.8-3.6-1.2-5.9-1.2c-2.3,0-4.2,0.4-5.9,1.2
							c-1.6,0.8-3,1.8-4.1,3.1c-1.1,1.3-1.9,2.8-2.5,4.4c-0.6,1.7-1,3.4-1.3,5.1H683.5z"/>
					</g>
				</g>
			</g>
		</g>
	</g>
</g>
<g id="calages" class="st7">
	<g class="st8">
		<g>
			<g>
				<g>
					<path class="st4" d="M285.1,37.3c8.4-2.6,14.2-8.1,14.2-14.6c0-8.9-11.3-16.2-25.2-16.2c-9.4,0-17.6,3.3-21.9,8.2L231.6,0.7
						L211,14.8c-4.3-4.9-12.5-8.2-21.9-8.2c-13.9,0-25.2,7.2-25.2,16.2c0,6.4,5.8,11.9,14.2,14.6l-23.4,16l20.7,14.2
						c4.3-4.9,12.5-8.1,21.8-8.1c13.9,0,25.2,7.2,25.2,16.2c0,6.4-5.7,11.9-14.1,14.5l10,6.8l13.3,9.1l13.5-9.3l9.7-6.7
						c-8.3-2.6-14.1-8.1-14.1-14.5c0-8.9,11.3-16.2,25.2-16.2c9.3,0,17.5,3.3,21.8,8.1l20.7-14.2L285.1,37.3z M231.5,90.9
						c-1.4,0-4-1.5-4-3.5c0-2,2.8-5,4.2-5c1.4,0,3.9,2.9,3.9,4.8C235.6,89.2,232.9,90.9,231.5,90.9z"/>
					<g>
						<g>
							<path class="st4" d="M214.3,72.1c0,3.4-2.7,6.1-6.1,6.1c-3.4,0-6.1-2.7-6.1-6.1c0-3.4,2.7-6.1,6.1-6.1
								C211.5,65.9,214.3,68.7,214.3,72.1z"/>
						</g>
						<g>
							<path class="st4" d="M261.1,72.1c0,3.4-2.7,6.1-6.1,6.1c-3.4,0-6.1-2.7-6.1-6.1c0-3.4,2.7-6.1,6.1-6.1
								C258.4,65.9,261.1,68.7,261.1,72.1z"/>
						</g>
					</g>
				</g>
			</g>
		</g>
	</g>
	<g class="st8">
		<g>
			<g>
				<g>
					<path class="st4" d="M285.1,247.9c8.4-2.6,14.2-8.1,14.2-14.6c0-8.9-11.3-16.2-25.2-16.2c-9.4,0-17.6,3.3-21.9,8.2l-20.6-14.1
						L211,225.4c-4.3-4.9-12.5-8.2-21.9-8.2c-13.9,0-25.2,7.2-25.2,16.2c0,6.4,5.8,11.9,14.2,14.6l-23.4,16l20.7,14.2
						c4.3-4.9,12.5-8.1,21.8-8.1c13.9,0,25.2,7.2,25.2,16.2c0,6.4-5.7,11.9-14.1,14.5l10,6.8l13.3,9.1l13.5-9.3l9.7-6.7
						c-8.3-2.6-14.1-8.1-14.1-14.5c0-8.9,11.3-16.2,25.2-16.2c9.3,0,17.5,3.3,21.8,8.1l20.7-14.2L285.1,247.9z M231.5,301.4
						c-1.4,0-4-1.5-4-3.5c0-2,2.8-5,4.2-5c1.4,0,3.9,2.9,3.9,4.8S232.9,301.4,231.5,301.4z"/>
					<g>
						<g>
							<path class="st4" d="M214.3,282.6c0,3.4-2.7,6.1-6.1,6.1c-3.4,0-6.1-2.7-6.1-6.1c0-3.4,2.7-6.1,6.1-6.1
								C211.5,276.5,214.3,279.2,214.3,282.6z"/>
						</g>
						<g>
							<path class="st4" d="M261.1,282.6c0,3.4-2.7,6.1-6.1,6.1c-3.4,0-6.1-2.7-6.1-6.1c0-3.4,2.7-6.1,6.1-6.1
								C258.4,276.5,261.1,279.2,261.1,282.6z"/>
						</g>
					</g>
				</g>
			</g>
		</g>
	</g>
	<g class="st8">
		<g>
			<g>
				<g>
					<path class="st4" d="M131.3,142.6c8.4-2.6,14.2-8.1,14.2-14.6c0-8.9-11.3-16.2-25.2-16.2c-9.4,0-17.6,3.3-21.9,8.2L77.8,106
						l-20.6,14.1c-4.3-4.9-12.5-8.2-21.9-8.2c-13.9,0-25.2,7.2-25.2,16.2c0,6.4,5.8,11.9,14.2,14.6l-23.4,16l20.7,14.2
						c4.3-4.9,12.5-8.1,21.8-8.1c13.9,0,25.2,7.2,25.2,16.2c0,6.4-5.7,11.9-14.1,14.5l10,6.8l13.3,9.1l13.5-9.3l9.7-6.7
						c-8.3-2.6-14.1-8.1-14.1-14.5c0-8.9,11.3-16.2,25.2-16.2c9.3,0,17.5,3.3,21.8,8.1l20.7-14.2L131.3,142.6z M77.7,196.2
						c-1.4,0-4-1.5-4-3.5c0-2,2.8-5,4.2-5c1.4,0,3.9,2.9,3.9,4.8S79.1,196.2,77.7,196.2z"/>
					<g>
						<g>
							<path class="st4" d="M60.5,177.3c0,3.4-2.7,6.1-6.1,6.1c-3.4,0-6.1-2.7-6.1-6.1c0-3.4,2.7-6.1,6.1-6.1
								C57.7,171.2,60.5,174,60.5,177.3z"/>
						</g>
						<g>
							<path class="st4" d="M107.4,177.3c0,3.4-2.7,6.1-6.1,6.1c-3.4,0-6.1-2.7-6.1-6.1c0-3.4,2.7-6.1,6.1-6.1
								C104.6,171.2,107.4,174,107.4,177.3z"/>
						</g>
					</g>
				</g>
			</g>
		</g>
	</g>
	<g class="st8">
		<g>
			<g>
				<g>
					<path class="st4" d="M1020.6,142.6c8.4-2.6,14.2-8.1,14.2-14.6c0-8.9-11.3-16.2-25.2-16.2c-9.4,0-17.6,3.3-21.9,8.2L967.1,106
						l-20.6,14.1c-4.3-4.9-12.5-8.2-21.9-8.2c-13.9,0-25.2,7.2-25.2,16.2c0,6.4,5.8,11.9,14.2,14.6l-23.4,16l20.7,14.2
						c4.3-4.9,12.5-8.1,21.8-8.1c13.9,0,25.2,7.2,25.2,16.2c0,6.4-5.7,11.9-14.1,14.5l10,6.8l13.3,9.1l13.5-9.3l9.7-6.7
						c-8.3-2.6-14.1-8.1-14.1-14.5c0-8.9,11.3-16.2,25.2-16.2c9.3,0,17.5,3.3,21.8,8.1l20.7-14.2L1020.6,142.6z M967,196.2
						c-1.4,0-4-1.5-4-3.5c0-2,2.8-5,4.2-5c1.4,0,3.9,2.9,3.9,4.8S968.4,196.2,967,196.2z"/>
					<g>
						<g>
							<path class="st4" d="M949.8,177.3c0,3.4-2.7,6.1-6.1,6.1c-3.4,0-6.1-2.7-6.1-6.1c0-3.4,2.7-6.1,6.1-6.1
								C947.1,171.2,949.8,174,949.8,177.3z"/>
						</g>
						<g>
							<path class="st4" d="M996.7,177.3c0,3.4-2.7,6.1-6.1,6.1c-3.4,0-6.1-2.7-6.1-6.1c0-3.4,2.7-6.1,6.1-6.1
								C993.9,171.2,996.7,174,996.7,177.3z"/>
						</g>
					</g>
				</g>
			</g>
		</g>
	</g>
</g>
</svg>
